<svg width="200" height="200" viewBox="0 0 200 200" fill="none" xmlns="http://www.w3.org/2000/svg">
  <!-- Double circular border - outer circle (thicker) -->
  <circle cx="100" cy="100" r="97" stroke="#FFD700" stroke-width="3" fill="none"/>
  <!-- Double circular border - inner circle (thinner) -->
  <circle cx="100" cy="100" r="91" stroke="#FFD700" stroke-width="1.5" fill="none"/>
  
  <!-- Decorative base - swirling lines at bottom of lotus -->
  <path d="M100 125 C93 123, 87 119, 85 112 C83 105, 85 99, 89 96" stroke="#FFD700" stroke-width="2" fill="none" stroke-linecap="round"/>
  <path d="M100 125 C107 123, 113 119, 115 112 C117 105, 115 99, 111 96" stroke="#FFD700" stroke-width="2" fill="none" stroke-linecap="round"/>
  
  <!-- Outer layer - bottom sweeping petals (adjusted to fit better) -->
  <path d="M100 120 Q87 118, 78 109 Q69 100, 71 91 Q73 82, 81 79 Q74 84, 72 91 Q70 98, 77 104" fill="#FFD700"/>
  <path d="M100 120 Q113 118, 122 109 Q131 100, 129 91 Q127 82, 119 79 Q126 84, 128 91 Q130 98, 123 104" fill="#FFD700"/>
  
  <!-- Second outer layer -->
  <path d="M100 115 Q89 112, 82 103 Q75 94, 77 85 Q79 76, 86 74 Q80 78, 78 85 Q76 92, 82 98" fill="#FFD700"/>
  <path d="M100 115 Q111 112, 118 103 Q125 94, 123 85 Q121 76, 114 74 Q120 78, 122 85 Q124 92, 118 98" fill="#FFD700"/>
  
  <!-- Middle layer petals -->
  <path d="M100 108 Q93 105, 88 97 Q83 89, 85 81 Q87 73, 93 71 Q88 75, 86 81 Q84 87, 88 94" fill="#FFD700"/>
  <path d="M100 108 Q107 105, 112 97 Q117 89, 115 81 Q113 73, 107 71 Q112 75, 114 81 Q116 87, 112 94" fill="#FFD700"/>
  
  <!-- Inner layer petals -->
  <path d="M100 100 Q95 98, 91 91 Q87 84, 89 77 Q91 70, 96 68 Q92 71, 90 77 Q88 83, 91 89" fill="#FFD700"/>
  <path d="M100 100 Q105 98, 109 91 Q113 84, 111 77 Q109 70, 104 68 Q108 71, 110 77 Q112 83, 109 89" fill="#FFD700"/>
  
  <!-- Central petal - tallest, teardrop-shaped, pointing upwards (adjusted) -->
  <path d="M100 92 Q98 86, 97 78 Q96 70, 99 64 Q102 58, 105 57 Q103 60, 101 65 Q100 70, 100 75 L100 57 Q100 65, 101 60, 105 57 Q102 58, 99 64 Q96 70, 97 78 Q98 86, 100 92 Z" fill="#FFD700"/>
  
  <!-- Central decorative element - 5 dots in vertical line (adjusted position) -->
  <circle cx="100" cy="63" r="2" fill="#FFD700"/>
  <circle cx="100" cy="67" r="2" fill="#FFD700"/>
  <circle cx="100" cy="71" r="2" fill="#FFD700"/>
  <circle cx="100" cy="75" r="2" fill="#FFD700"/>
  <circle cx="100" cy="79" r="2" fill="#FFD700"/>
  
  <!-- Teardrop/dewdrop shape (adjusted) -->
  <path d="M100 81 Q99 83, 98.5 85 Q98 87, 98.5 89 Q99 91, 100 93 Q101 91, 101.5 89 Q102 87, 101.5 85 Q101 83, 100 81 Z" fill="#FFD700"/>
  
  <!-- OMKAR text - properly positioned within circle -->
  <text x="100" y="145" font-family="Georgia, 'Times New Roman', Times, serif" font-size="18" font-weight="bold" fill="#FFD700" text-anchor="middle" letter-spacing="0.1em">OMKAR</text>
  
  <!-- DECORATION text - properly positioned within circle -->
  <text x="100" y="163" font-family="Georgia, 'Times New Roman', Times, serif" font-size="13" font-weight="bold" fill="#FFD700" text-anchor="middle" letter-spacing="0.06em">DECORATION</text>
</svg>
